2.6Hz3min_grf.mot
version=1
nRows=12
nColumns 19
inDegrees=yes
endheader
time	1_ground_force_vx	1_ground_force_vy	1_ground_force_vz	1_ground_force_px	1_ground_force_py	1_ground_force_pz	1_ground_torque_x	1_ground_torque_y	1_ground_torque_z	2_ground_force_vx	2_ground_force_vy	2_ground_force_vz	2_ground_force_px	2_ground_force_py	2_ground_force_pz	2_ground_torque_x	2_ground_torque_y	2_ground_torque_z
            2.502500	            2.571393	           81.808082	            8.048347	           -0.235450	            0.006106	           -0.378184	           -0.006549	           -0.208345	           -0.020497	           -9.033333	          126.505060	           -6.865738	           -0.237718	            0.005471	           -0.654446	            0.019035	           -0.266569	            0.014467
            2.503000	            1.199916	           86.486663	            9.951950	           -0.234294	            0.006099	           -0.376398	           -0.002222	           -0.160138	           -0.018427	          -13.682051	          129.612969	           -5.210112	           -0.231892	            0.005500	           -0.656665	            0.029746	           -0.281787	            0.011327
            2.503500	           -0.125827	           88.642517	           11.615338	           -0.232709	            0.006094	           -0.375163	            0.000066	           -0.046323	           -0.006070	          -18.090436	          131.063560	           -3.325858	           -0.228008	            0.005520	           -0.658184	            0.054356	           -0.393804	            0.009993
            2.504000	           -2.599665	           85.034956	           12.018726	           -0.233096	            0.006104	           -0.377664	           -0.003858	            0.126186	            0.017835	          -22.109852	          128.467938	           -2.488638	           -0.228751	            0.005512	           -0.656705	            0.035580	           -0.206734	            0.004005
            2.504500	           -6.223664	           83.236318	           10.919442	           -0.233909	            0.006099	           -0.376371	           -0.003820	            0.051083	            0.006701	          -25.189934	          124.962969	           -3.907650	           -0.228141	            0.005506	           -0.654553	           -0.014925	            0.074043	           -0.002315
            2.505000	           -9.711401	           80.899269	            9.267228	           -0.230830	            0.006088	           -0.373791	           -0.002860	            0.023828	            0.002730	          -26.871638	          123.308407	           -6.400035	           -0.225028	            0.005523	           -0.656235	           -0.011868	            0.054460	           -0.002827
            2.505500	          -12.557370	           78.742609	            7.614194	           -0.229141	            0.006093	           -0.374834	            0.036047	           -0.226040	           -0.021857	          -27.524454	          122.208513	           -8.468535	           -0.223030	            0.005532	           -0.656546	            0.017600	           -0.078145	            0.005415
            2.506000	          -14.575354	           78.022926	            7.203405	           -0.229322	            0.006074	           -0.370451	            0.069075	           -0.369765	           -0.034138	          -28.590184	          118.891124	           -8.808401	           -0.222864	            0.005524	           -0.654176	            0.051117	           -0.212570	            0.015749
            2.506500	          -15.719167	           77.478172	            8.075193	           -0.228251	            0.006072	           -0.369901	            0.062076	           -0.305967	           -0.031890	          -29.793810	          115.015435	           -7.648478	           -0.222617	            0.005519	           -0.652706	            0.090175	           -0.348110	            0.023149
            2.507000	          -16.083438	           76.392575	            8.988583	           -0.228776	            0.006082	           -0.372327	            0.036721	           -0.174414	           -0.020522	          -31.800926	          113.160318	           -5.870924	           -0.221051	            0.005536	           -0.655676	            0.077960	           -0.277412	            0.014393
            2.507500	          -17.090618	           76.390021	            9.541357	           -0.230118	            0.006085	           -0.373041	           -0.004012	            0.017933	            0.002240	          -33.055228	          110.387995	           -4.331615	           -0.217271	            0.005555	           -0.657185	            0.039093	           -0.130550	            0.005123
            2.508000	          -18.237978	           77.833695	            9.137682	           -0.231124	            0.006076	           -0.371016	           -0.017763	            0.075805	            0.008900	          -34.266593	          108.541444	           -4.149955	           -0.215345	            0.005564	           -0.657757	           -0.048424	            0.153385	           -0.005865
